<svg width="22" height="20" viewBox="0 0 22 20" fill="none" xmlns="http://www.w3.org/2000/svg">
<path fill-rule="evenodd" clip-rule="evenodd" d="M21.1928 3.46313C21.0768 3.18285 20.8033 3.00006 20.5 3H17.6472C16.8359 1.61972 15.3604 0.765791 13.7594 0.75C12.5747 0.734462 11.4339 1.19754 10.5953 2.03438C9.73219 2.88138 9.24717 4.04071 9.25 5.25V5.82094C5.47563 4.82531 2.38844 1.755 2.35563 1.72219C2.15019 1.51493 1.84318 1.44566 1.56865 1.54461C1.29411 1.64356 1.1019 1.89277 1.07594 2.18344C0.671875 6.66375 1.97312 9.66187 3.13844 11.3878C3.70664 12.241 4.39786 13.0055 5.18969 13.6566C3.76188 15.3 1.51375 16.1634 1.48938 16.1728C1.27498 16.2531 1.109 16.4269 1.03868 16.6448C0.968369 16.8627 1.00142 17.1008 1.12844 17.2913C1.19875 17.3962 1.48 17.7647 2.16719 18.1087C3.01656 18.5344 4.13875 18.75 5.5 18.75C12.1253 18.75 17.6612 13.6481 18.2266 7.08375L21.0306 4.28062C21.2451 4.06601 21.3091 3.74335 21.1928 3.46313ZM16.9741 6.22031C16.8455 6.34921 16.7682 6.52049 16.7566 6.70219C16.375 12.6169 11.4325 17.25 5.5 17.25C4.51 17.25 3.8125 17.1187 3.32312 16.9613C4.40219 16.3753 5.90688 15.3675 6.87438 13.9163C6.98915 13.7438 7.02746 13.5315 6.98023 13.3298C6.93299 13.128 6.80442 12.9548 6.625 12.8512C6.58094 12.8259 2.50844 10.3819 2.5 3.85125C4 5.07 6.74219 6.96094 9.87531 7.48781C10.0927 7.52446 10.3151 7.46364 10.4836 7.32154C10.6521 7.17943 10.7495 6.9704 10.75 6.75V5.25C10.7483 4.44176 11.0728 3.66702 11.65 3.10125C12.2034 2.54686 12.9574 2.23983 13.7406 2.25C14.9275 2.265 16.0366 2.98875 16.5006 4.05094C16.6202 4.32382 16.8899 4.50008 17.1878 4.5H18.6878L16.9741 6.22031Z" fill="#0D1C14" stroke="black"/>
</svg>
