<svg width="22" height="22" viewBox="0 0 22 22" fill="none" xmlns="http://www.w3.org/2000/svg">
<path fill-rule="evenodd" clip-rule="evenodd" d="M11 6.5C8.51472 6.5 6.5 8.51472 6.5 11C6.5 13.4853 8.51472 15.5 11 15.5C13.4853 15.5 15.5 13.4853 15.5 11C15.4974 8.51579 13.4842 6.50258 11 6.5ZM11 14C9.34315 14 8 12.6569 8 11C8 9.34315 9.34315 8 11 8C12.6569 8 14 9.34315 14 11C14 12.6569 12.6569 14 11 14ZM15.5 1.25H6.5C3.60179 1.2531 1.2531 3.60179 1.25 6.5V15.5C1.2531 18.3982 3.60179 20.7469 6.5 20.75H15.5C18.3982 20.7469 20.7469 18.3982 20.75 15.5V6.5C20.7469 3.60179 18.3982 1.2531 15.5 1.25ZM19.25 15.5C19.25 17.5711 17.5711 19.25 15.5 19.25H6.5C4.42893 19.25 2.75 17.5711 2.75 15.5V6.5C2.75 4.42893 4.42893 2.75 6.5 2.75H15.5C17.5711 2.75 19.25 4.42893 19.25 6.5V15.5ZM17 6.125C17 6.74632 16.4963 7.25 15.875 7.25C15.2537 7.25 14.75 6.74632 14.75 6.125C14.75 5.50368 15.2537 5 15.875 5C16.4963 5 17 5.50368 17 6.125Z" fill="#0D1C14" stroke="black"/>
</svg>
