<svg width="30" height="30" viewBox="0 0 30 30" fill="none" xmlns="http://www.w3.org/2000/svg">
<path d="M6.00002 21C6.00002 21.825 6.29351 22.531 6.88051 23.118C7.46751 23.705 8.17401 23.999 9.00001 24H27C27.825 24 28.531 23.706 29.118 23.118C29.705 22.53 29.999 21.824 30 21V3C30 2.175 29.706 1.4685 29.118 0.880503C28.53 0.292501 27.824 -0.000997543 27 1.90735e-06H9.00001C8.17501 1.90735e-06 7.46851 0.293503 6.88051 0.880503C6.29251 1.4675 5.99902 2.174 6.00002 3V21ZM1.90735e-05 27C1.90735e-05 27.825 0.293518 28.531 0.880518 29.118C1.46752 29.705 2.17402 29.999 3.00002 30H22.5C22.925 30 23.281 29.856 23.568 29.568C23.855 29.28 23.999 28.924 24 28.5C24.001 28.076 23.857 27.7195 23.568 27.4305C23.279 27.1415 22.923 26.998 22.5 27H3.00002V7.5C3.00002 7.075 2.85602 6.7185 2.56802 6.4305C2.28002 6.1425 1.92402 5.999 1.50002 6C1.07602 6.001 0.719519 6.145 0.430519 6.432C0.14152 6.719 -0.00198174 7.075 1.90735e-05 7.5V27ZM13.8 14.1L15.9 12L13.8 9.9C13.525 9.625 13.3875 9.275 13.3875 8.85C13.3875 8.425 13.525 8.075 13.8 7.8C14.075 7.525 14.425 7.3875 14.85 7.3875C15.275 7.3875 15.625 7.525 15.9 7.8L18 9.9L20.1 7.8C20.375 7.525 20.725 7.3875 21.15 7.3875C21.575 7.3875 21.925 7.525 22.2 7.8C22.475 8.075 22.6125 8.425 22.6125 8.85C22.6125 9.275 22.475 9.625 22.2 9.9L20.1 12L22.2 14.1C22.475 14.375 22.6125 14.725 22.6125 15.15C22.6125 15.575 22.475 15.925 22.2 16.2C21.925 16.475 21.575 16.6125 21.15 16.6125C20.725 16.6125 20.375 16.475 20.1 16.2L18 14.1L15.9 16.2C15.625 16.475 15.275 16.6125 14.85 16.6125C14.425 16.6125 14.075 16.475 13.8 16.2C13.525 15.925 13.3875 15.575 13.3875 15.15C13.3875 14.725 13.525 14.375 13.8 14.1Z" fill="#09713D"/>
</svg>
