<svg width="22" height="22" viewBox="0 0 22 22" fill="none" xmlns="http://www.w3.org/2000/svg">
<path fill-rule="evenodd" clip-rule="evenodd" d="M11 1.25C5.61522 1.25 1.25 5.61522 1.25 11C1.25 16.3848 5.61522 20.75 11 20.75C16.3848 20.75 20.75 16.3848 20.75 11C20.7443 5.61758 16.3824 1.25568 11 1.25ZM11.75 19.2153V13.25H14C14.4142 13.25 14.75 12.9142 14.75 12.5C14.75 12.0858 14.4142 11.75 14 11.75H11.75V9.5C11.75 8.67157 12.4216 8 13.25 8H14.75C15.1642 8 15.5 7.66421 15.5 7.25C15.5 6.83579 15.1642 6.5 14.75 6.5H13.25C11.5931 6.5 10.25 7.84315 10.25 9.5V11.75H8C7.58579 11.75 7.25 12.0858 7.25 12.5C7.25 12.9142 7.58579 13.25 8 13.25H10.25V19.2153C5.85788 18.8144 2.55787 15.0299 2.75854 10.6241C2.95922 6.21827 6.58962 2.74947 11 2.74947C15.4104 2.74947 19.0408 6.21827 19.2415 10.6241C19.4421 15.0299 16.1421 18.8144 11.75 19.2153Z" fill="#0D1C14" stroke="black"/>
</svg>
